<svg xmlns="http://www.w3.org/2000/svg" width="113" height="24" fill="none"><g clip-path="url(#a)"><mask id="b" width="113" height="24" x="0" y="0" maskUnits="userSpaceOnUse" style="mask-type:luminance"><path fill="#fff" d="M113 0H0v24h113V0Z"/></mask><g fill="#fff" mask="url(#b)"><path d="M8.595 23.458c-2.313-.077-4.061-.606-5.244-1.587-1.183-1.006-2.037-2.129-2.563-3.368C.263 17.24 0 15.961 0 14.671c0-1.342.25-2.632.749-3.871.526-1.264 1.38-2.387 2.563-3.368C4.52 6.426 6.045 5.91 7.885 5.884h12.774c1.84.026 3.35.542 4.534 1.548 1.209.981 2.063 2.104 2.562 3.368a9.815 9.815 0 0 1 .789 3.871c0 1.29-.263 2.568-.789 3.832-.525 1.239-1.38 2.362-2.562 3.368-1.183.98-2.931 1.51-5.244 1.587H8.595Zm-.868-12.387c-.5 0-.933.207-1.3.62a3.735 3.735 0 0 0-.829 1.393 5.274 5.274 0 0 0-.236 1.548c0 .542.079 1.084.236 1.626.184.516.46.98.828 1.394.368.387.802.593 1.301.619h13.09c.499-.026.932-.232 1.3-.62.368-.412.631-.877.789-1.393a5.03 5.03 0 0 0 .276-1.626c0-.516-.092-1.032-.276-1.548a3.344 3.344 0 0 0-.789-1.394c-.368-.412-.801-.619-1.3-.619H7.726ZM58.112 8.13c0 .644-.262 1.186-.788 1.625-.5.413-1.117.62-1.853.62H38.794c-.341 0-.617.064-.828.193-.21.129-.368.27-.473.426-.105.129-.157.245-.157.348 0 .129.052.27.157.426.105.129.263.258.473.387.21.103.487.168.828.193h12.892c1.656.026 3.023.349 4.1.968 1.078.594 1.84 1.303 2.287 2.13.473.8.71 1.612.71 2.438 0 .8-.237 1.613-.71 2.439-.473.8-1.248 1.51-2.326 2.129-1.051.593-2.405.89-4.06.89-.29.026-.5.039-.632.039H35.758c-.735 0-1.366-.207-1.892-.62-.5-.438-.749-.967-.749-1.587 0-.645.263-1.187.789-1.626.499-.412 1.117-.619 1.852-.619h16.243c.395.026.71-.026.947-.155.263-.129.46-.27.591-.426.132-.154.197-.31.197-.464 0-.078-.065-.207-.197-.387a1.19 1.19 0 0 0-.591-.465c-.237-.129-.552-.206-.947-.232h-12.93c-1.525-.026-2.787-.335-3.785-.929-1-.62-1.709-1.329-2.13-2.129-.42-.8-.63-1.6-.63-2.4 0-.8.21-1.587.63-2.361.447-.8 1.157-1.484 2.13-2.052.998-.593 2.26-.916 3.784-.968a6.89 6.89 0 0 1 .592-.038h15.81c.735 0 1.353.219 1.852.658.526.413.788.929.788 1.548ZM65.879 0c.71.026 1.314.284 1.813.774.5.465.763 1.045.79 1.742v18.968c-.159 1.548-1.026 2.387-2.603 2.516-.736 0-1.38-.232-1.932-.697a2.388 2.388 0 0 1-.788-1.82V2.517c.026-.722.302-1.316.828-1.78A2.676 2.676 0 0 1 65.879 0ZM81.65 23.458c-2.314-.077-4.061-.606-5.244-1.587-1.183-1.006-2.037-2.129-2.563-3.368-.525-1.264-.788-2.542-.788-3.832 0-1.342.25-2.632.749-3.871.526-1.264 1.38-2.387 2.563-3.368C77.576 6.426 79.1 5.91 80.94 5.884h12.774c1.84.026 3.35.542 4.534 1.548 1.209.981 2.063 2.104 2.562 3.368a9.807 9.807 0 0 1 .789 3.871c0 1.29-.263 2.568-.789 3.832-.526 1.239-1.38 2.362-2.562 3.368-1.183.98-2.931 1.51-5.244 1.587H81.649Zm-.868-12.387c-.5 0-.933.207-1.3.62a3.737 3.737 0 0 0-.829 1.393 5.275 5.275 0 0 0-.236 1.548c0 .542.079 1.084.236 1.626.184.516.46.98.828 1.394.368.387.802.593 1.301.619h13.09c.499-.026.932-.232 1.3-.62.368-.412.631-.877.789-1.393a5.032 5.032 0 0 0 .276-1.626c0-.516-.092-1.032-.276-1.548a3.344 3.344 0 0 0-.789-1.394c-.368-.412-.801-.619-1.3-.619h-13.09ZM110.065 24c1.558 0 2.822-1.28 2.822-2.857 0-1.578-1.264-2.857-2.822-2.857-1.559 0-2.822 1.279-2.822 2.857 0 1.578 1.263 2.857 2.822 2.857Z"/></g></g><defs><clipPath id="a"><path fill="#fff" d="M0 0h113v24H0z"/></clipPath></defs></svg>