<svg xmlns="http://www.w3.org/2000/svg" width="408" height="90" fill="none"><g clip-path="url(#a)"><mask id="b" width="408" height="90" x="0" y="0" maskUnits="userSpaceOnUse" style="mask-type:luminance"><path fill="#fff" d="M408 0H0v90h408V0Z"/></mask><g fill="#fff" mask="url(#b)"><path d="M108.605 18.53h12.748v50.004h30.215v10.96h-42.963V18.53Zm88.493 21.59c3.807 4.77 5.711 10.408 5.711 16.916 0 6.617-1.904 12.284-5.711 16.999-3.808 4.687-9.589 7.031-17.343 7.031-7.753 0-13.534-2.344-17.342-7.031-3.808-4.715-5.712-10.382-5.712-17 0-6.507 1.904-12.145 5.712-16.916 3.808-4.77 9.589-7.155 17.342-7.155 7.754 0 13.535 2.385 17.343 7.155Zm-17.384 2.812c-3.449 0-6.112 1.227-7.988 3.68-1.849 2.427-2.773 5.902-2.773 10.424 0 4.522.924 8.01 2.773 10.464 1.876 2.454 4.539 3.68 7.988 3.68 3.449 0 6.098-1.226 7.947-3.68 1.848-2.454 2.773-5.942 2.773-10.464s-.925-7.997-2.773-10.423c-1.849-2.454-4.498-3.681-7.947-3.681Zm52.813.207c-4.001 0-6.746 1.695-8.236 5.087-.773 1.792-1.159 4.081-1.159 6.866v24.403h-11.755v-45h11.382v6.576c1.518-2.316 2.953-3.985 4.305-5.005 2.428-1.82 5.505-2.73 9.23-2.73 4.663 0 8.471 1.227 11.423 3.681 2.98 2.427 4.47 6.466 4.47 12.119v30.358h-12.085v-27.42c0-2.372-.318-4.192-.952-5.46-1.159-2.316-3.367-3.474-6.623-3.474Zm71.646-24.527v60.882h-11.465V73.25c-1.683 2.674-3.601 4.618-5.753 5.832-2.153 1.213-4.829 1.82-8.03 1.82-5.27 0-9.713-2.124-13.327-6.37-3.588-4.274-5.381-9.747-5.381-16.42 0-7.693 1.766-13.745 5.298-18.157 3.559-4.412 8.305-6.618 14.238-6.618 2.732 0 5.16.607 7.284 1.82 2.125 1.186 3.85 2.84 5.174 4.963V18.612h11.962Zm-31.788 38.63c0 4.164.828 7.486 2.484 9.968 1.628 2.51 4.111 3.764 7.45 3.764 3.339 0 5.877-1.24 7.616-3.723 1.738-2.481 2.607-5.693 2.607-9.636 0-5.515-1.393-9.458-4.18-11.83-1.711-1.433-3.698-2.15-5.96-2.15-3.449 0-5.988 1.31-7.616 3.929-1.6 2.592-2.401 5.818-2.401 9.678Zm80.171-17.122c3.808 4.77 5.712 10.408 5.712 16.916 0 6.617-1.904 12.284-5.712 16.999-3.808 4.687-9.588 7.031-17.342 7.031s-13.534-2.344-17.342-7.031c-3.808-4.715-5.712-10.382-5.712-17 0-6.507 1.904-12.145 5.712-16.916 3.808-4.77 9.588-7.155 17.342-7.155s13.534 2.385 17.342 7.155Zm-17.383 2.812c-3.45 0-6.112 1.227-7.989 3.68-1.848 2.427-2.773 5.902-2.773 10.424 0 4.522.925 8.01 2.773 10.464 1.877 2.454 4.539 3.68 7.989 3.68 3.449 0 6.098-1.226 7.946-3.68 1.849-2.454 2.774-5.942 2.774-10.464s-.925-7.997-2.774-10.423c-1.848-2.454-4.497-3.681-7.946-3.681Zm52.815.207c-4.001 0-6.747 1.695-8.237 5.087-.772 1.792-1.159 4.081-1.159 6.866v24.403h-11.754v-45h11.382v6.576c1.518-2.316 2.952-3.985 4.304-5.005 2.429-1.82 5.505-2.73 9.23-2.73 4.664 0 8.471 1.227 11.424 3.681 2.98 2.427 4.47 6.466 4.47 12.119v30.358h-12.086v-27.42c0-2.372-.317-4.192-.952-5.46-1.159-2.316-3.366-3.474-6.622-3.474ZM35.34 0h35.341l-35.34 52.878H0L35.34 0Zm26.866 63.53H0L18.53 90h63.529L62.206 63.53Z"/></g></g><defs><clipPath id="a"><path fill="#fff" d="M0 0h408v90H0z"/></clipPath></defs></svg>