<svg xmlns="http://www.w3.org/2000/svg" width="494" height="90" fill="none"><g clip-path="url(#a)"><mask id="b" width="494" height="90" x="0" y="0" maskUnits="userSpaceOnUse" style="mask-type:luminance"><path fill="#fff" d="M494 0H0v90h494V0Z"/></mask><g fill="#fff" mask="url(#b)"><path d="M147.081 49.302v24.34h-11.202v-56.5h11.202v18.516c2.695-3.2 7.243-4.548 11.202-4.548 10.528 0 15.413 7.327 15.413 16.423v26.11h-11.202V49.47c0-4.633-2.274-8.254-7.665-8.254-4.716 0-7.495 3.537-7.748 8.085Z"/><path fill-rule="evenodd" d="M114.856 54.37H104.16v19.273H92.537v-56.5h22.319c11.792 0 19.624 7.832 19.624 18.613 0 10.865-7.832 18.613-19.624 18.613Zm-10.612-10.023h9.18c5.812 0 9.349-3.37 9.349-8.507 0-5.306-3.537-8.59-9.349-8.59h-9.18v17.097Z" clip-rule="evenodd"/><path d="M178.748 73.642h11.201V32.204h-11.201v41.438Zm28.079.001h-11.202v-56.5h11.202v56.5Z"/><path fill-rule="evenodd" d="M222.11 49.807c-6.906 1.011-12.381 5.138-12.381 12.55 0 6.485 5.391 12.465 14.234 12.465 6.148 0 10.107-2.864 12.212-6.149 0 1.6.169 3.875.422 4.97h10.275c-.253-1.432-.506-4.38-.506-6.57V46.691c0-8.338-4.885-15.75-18.023-15.75-11.118 0-17.098 7.16-17.771 13.645l9.938 2.105c.337-3.622 3.032-6.738 7.917-6.738 4.716 0 6.99 2.443 6.99 5.39 0 1.432-.758 2.611-3.116 2.948l-10.191 1.516Zm13.307 7.075c0 7.328-4.379 9.602-9.096 9.602-3.621 0-5.39-2.359-5.39-4.801 0-3.2 2.274-4.8 5.138-5.222l9.348-1.432v1.853Zm55.261-39.739v49.004c0 2.78.169 5.811.337 7.496h-10.696c-.169-.843-.421-2.864-.421-4.801-1.853 3.285-6.065 5.811-11.623 5.811-11.792 0-20.214-9.264-20.214-21.814 0-12.128 8.17-21.645 19.877-21.645 7.159 0 10.528 2.948 11.707 5.138v-19.19h11.033ZM259.347 52.84c0 7.411 4.38 11.79 10.275 11.79 5.727 0 10.191-4.379 10.191-11.875 0-7.411-4.464-11.538-10.191-11.538s-10.275 4.21-10.275 11.623Zm74.308 8.927-9.349-2.78c-1.348 3.707-4.211 6.318-9.433 6.318-5.559 0-10.191-3.959-10.444-9.434h29.647c0-.04.011-.173.026-.373.047-.615.142-1.872.142-3.08 0-13.307-7.663-21.477-20.465-21.477-10.612 0-20.383 8.591-20.383 21.814 0 13.981 10.023 22.15 21.393 22.15 10.191 0 16.76-5.979 18.866-13.138Zm-10.444-13.56h-18.529c.253-3.79 3.454-8.17 9.265-8.17 6.401 0 9.096 4.043 9.264 8.17Z" clip-rule="evenodd"/><path d="M347.949 73.643h-11.201v-56.5h11.201v56.5Z"/><path fill-rule="evenodd" d="M353.627 89.645h11.202V69.6c2.021 2.78 6.232 5.053 11.96 5.053 11.707 0 19.539-9.264 19.539-21.814 0-12.296-6.99-21.56-19.118-21.56-6.233 0-10.865 2.779-12.718 5.98v-5.054h-10.865v57.44Zm21.393-48.344c5.727 0 10.275 4.295 10.275 11.623 0 7.411-4.548 11.707-10.275 11.707s-10.36-4.38-10.36-11.707c0-7.328 4.633-11.623 10.36-11.623Z" clip-rule="evenodd"/><path d="M410.082 49.302v24.34h-11.201v-56.5h11.201v18.516c2.696-3.2 7.244-4.548 11.202-4.548 10.528 0 15.413 7.327 15.413 16.423v26.11h-11.202V49.47c0-4.633-2.274-8.254-7.664-8.254-4.717 0-7.496 3.537-7.749 8.085Zm31.666 24.34h11.202V32.204h-11.202v41.438Z"/><path fill-rule="evenodd" d="M456.1 62.357c0-7.412 5.474-11.539 12.381-12.55l10.191-1.516c2.358-.336 3.116-1.516 3.116-2.947 0-2.948-2.274-5.39-6.99-5.39-4.885 0-7.581 3.115-7.917 6.737l-9.939-2.105c.674-6.486 6.654-13.645 17.771-13.645 13.139 0 18.024 7.412 18.024 15.75v20.382c0 2.19.253 5.138.505 6.57h-10.275c-.252-1.095-.421-3.37-.421-4.97-2.106 3.285-6.064 6.149-12.212 6.149-8.844 0-14.234-5.98-14.234-12.465Zm16.592 4.127c4.716 0 9.096-2.274 9.096-9.602V55.03l-9.349 1.432c-2.863.421-5.137 2.021-5.137 5.222 0 2.442 1.768 4.8 5.39 4.8Z" clip-rule="evenodd"/><path d="M189.95 26.992c0 1.183-.96 2.143-2.143 2.143h-6.916a2.143 2.143 0 0 1-2.143-2.143V20.07c0-1.183.959-2.142 2.143-2.142h6.916c1.183 0 2.143.96 2.143 2.142v6.922Zm260.537 2.143c1.184 0 2.143-.96 2.143-2.143V20.07a2.143 2.143 0 0 0-2.143-2.142h-6.916c-1.183 0-2.143.96-2.143 2.142v6.922c0 1.183.96 2.143 2.143 2.143h6.916Z"/><path fill-rule="evenodd" d="M4.286 0A4.286 4.286 0 0 0 0 4.286v21.428A4.286 4.286 0 0 0 4.286 30h21.428A4.286 4.286 0 0 1 30 34.286v21.878A3.836 3.836 0 0 0 33.836 60H45c16.568 0 30-13.432 30-30C75 13.43 61.568 0 45 0H4.286Zm0 60A4.286 4.286 0 0 0 0 64.286v21.428A4.286 4.286 0 0 0 4.286 90h21.428A4.286 4.286 0 0 0 30 85.714V64.286A4.286 4.286 0 0 0 25.714 60H4.286Z" clip-rule="evenodd"/></g></g><defs><clipPath id="a"><path fill="#fff" d="M0 0h494v90H0z"/></clipPath></defs></svg>