<svg xmlns="http://www.w3.org/2000/svg" width="114" height="25" fill="none"><g clip-path="url(#a)"><mask id="b" width="114" height="25" x="0" y="0" maskUnits="userSpaceOnUse" style="mask-type:luminance"><path fill="#fff" d="M114 0H0v25h114V0Z"/></mask><g fill="#fff" mask="url(#b)"><path d="M110.865 25c-.919 0-1.675-.268-2.267-.804a2.735 2.735 0 0 1-.857-2.04c0-.823.285-1.513.857-2.07.592-.556 1.348-.834 2.267-.834.899 0 1.634.278 2.206.834.592.557.888 1.247.888 2.07 0 .804-.296 1.484-.888 2.04-.572.536-1.307.804-2.206.804Zm-24.284-8.9c0-1.772.327-3.327.98-4.666.674-1.34 1.583-2.37 2.727-3.09 1.144-.721 2.42-1.082 3.829-1.082 1.205 0 2.257.247 3.155.742.92.494 1.624 1.143 2.114 1.947V7.509h5.238v17.244h-5.238V22.31c-.51.804-1.225 1.453-2.144 1.947-.899.495-1.95.742-3.156.742-1.388 0-2.654-.36-3.798-1.082-1.144-.741-2.052-1.782-2.727-3.12-.653-1.36-.98-2.926-.98-4.698Zm12.805.031c0-1.319-.368-2.359-1.103-3.121-.715-.762-1.593-1.143-2.634-1.143-1.042 0-1.93.38-2.665 1.143-.715.742-1.073 1.772-1.073 3.09 0 1.319.358 2.37 1.073 3.152.735.762 1.623 1.143 2.665 1.143 1.041 0 1.92-.38 2.634-1.143.735-.762 1.103-1.802 1.103-3.121ZM83.826 1.885v22.867h-5.238V1.885h5.238ZM72.189 5.717c-.92 0-1.675-.268-2.267-.804a2.736 2.736 0 0 1-.858-2.04c0-.823.286-1.503.858-2.039C70.514.278 71.269 0 72.189 0c.898 0 1.633.278 2.205.834.593.536.888 1.216.888 2.04 0 .803-.295 1.483-.888 2.04-.572.535-1.307.803-2.206.803Zm2.603 1.792v17.244h-5.238V7.509h5.238Zm-15.465-.185c2.002 0 3.595.659 4.78 1.977 1.204 1.298 1.806 3.09 1.806 5.377v10.075h-5.207v-9.364c0-1.153-.296-2.05-.889-2.688-.592-.639-1.388-.958-2.39-.958-1 0-1.796.32-2.388.958-.593.638-.889 1.534-.889 2.688v9.364h-5.238V7.509h5.238v2.287c.531-.762 1.246-1.36 2.145-1.792.898-.454 1.91-.68 3.032-.68ZM27.08 16.1c0-1.772.326-3.327.98-4.666.673-1.34 1.582-2.37 2.726-3.09 1.143-.721 2.42-1.082 3.829-1.082 1.205 0 2.257.247 3.155.742.92.494 1.624 1.143 2.114 1.947V7.509h5.238v17.244h-5.238V22.31c-.51.804-1.225 1.453-2.144 1.947-.899.495-1.95.742-3.156.742-1.389 0-2.655-.36-3.798-1.082-1.144-.741-2.053-1.782-2.727-3.12-.653-1.36-.98-2.926-.98-4.698Zm12.804.031c0-1.319-.367-2.359-1.103-3.121-.715-.762-1.593-1.143-2.634-1.143-1.042 0-1.93.38-2.665 1.143-.715.742-1.073 1.772-1.073 3.09 0 1.319.358 2.37 1.073 3.152.735.762 1.623 1.143 2.665 1.143 1.041 0 1.92-.38 2.634-1.143.736-.762 1.103-1.802 1.103-3.121ZM24.354 3.059v21.693h-5.239v-13.01l-4.81 13.01H10.08l-4.84-13.04v13.04H0V3.06h6.188l6.035 15.018L18.196 3.06h6.158Z"/></g></g><defs><clipPath id="a"><path fill="#fff" d="M0 0h114v25H0z"/></clipPath></defs></svg>