<svg xmlns="http://www.w3.org/2000/svg" width="115" height="30" fill="none"><path fill="#fff" d="M50.267 24.667H38.888v-20.1h10.774c1.553 0 2.834.18 3.843.54 1.03.34 1.796.88 2.3 1.62.505.72.757 1.65.757 2.79 0 1.26-.343 2.26-1.03 3-.685.74-1.724 1.17-3.116 1.29v.39c1.715.06 2.986.55 3.813 1.47.847.92 1.271 2.06 1.271 3.42 0 1.16-.262 2.16-.787 3-.504.84-1.291 1.48-2.36 1.92-1.07.44-2.431.66-4.086.66Zm-5.69-8.07v3h5.478c.545 0 .959-.08 1.241-.24.282-.16.424-.57.424-1.23 0-.68-.131-1.1-.394-1.26-.262-.18-.686-.27-1.27-.27h-5.478Zm0-6.96v2.58h4.782c.585 0 .979-.09 1.18-.27.222-.18.333-.52.333-1.02 0-.54-.13-.89-.393-1.05-.242-.16-.656-.24-1.24-.24h-4.661Zm28.937 15.03h-5.326v-2.34l-.091-.96v-6.33c0-.48-.131-.81-.394-.99-.242-.2-.776-.3-1.603-.3-.828 0-1.382.09-1.665.27-.262.18-.393.5-.393.96v.48h-5.418v-.36c0-1.28.313-2.37.939-3.27.645-.92 1.543-1.63 2.693-2.13 1.15-.5 2.502-.75 4.055-.75 1.614 0 2.946.24 3.995.72 1.07.48 1.866 1.2 2.39 2.16.546.94.818 2.14.818 3.6v9.24Zm-10.532.3c-1.331 0-2.451-.35-3.359-1.05-.908-.72-1.362-1.78-1.362-3.18 0-.8.172-1.49.515-2.07.363-.6.898-1.09 1.604-1.47.726-.38 1.644-.66 2.754-.84l5.266-.84v3.3l-4.086.69c-.303.04-.525.12-.666.24-.12.1-.181.26-.181.48 0 .26.1.44.302.54.202.08.565.12 1.09.12.787 0 1.412-.07 1.876-.21.484-.16.827-.4 1.029-.72.222-.34.333-.78.333-1.32l.424 4.17h-.606c-.222.32-.534.65-.938.99-.403.32-.928.6-1.574.84-.645.22-1.452.33-2.42.33Zm19.277 0c-2.562 0-4.449-.48-5.66-1.44-1.21-.96-1.815-2.32-1.815-4.08v-.09h5.296v.39c0 .28.05.5.151.66.101.14.303.24.606.3.322.06.796.09 1.422.09.525 0 .908-.02 1.15-.06.242-.04.393-.11.454-.21.08-.12.121-.27.121-.45 0-.24-.08-.41-.242-.51-.162-.12-.565-.24-1.21-.36l-2.966-.54c-1.03-.2-1.907-.48-2.633-.84-.727-.36-1.282-.85-1.665-1.47-.363-.64-.544-1.46-.544-2.46 0-1.42.575-2.6 1.724-3.54 1.17-.94 2.906-1.41 5.206-1.41 1.331 0 2.522.19 3.57.57 1.07.38 1.907.95 2.513 1.71.625.76.938 1.71.938 2.85v.57h-5.326v-.27c0-.32-.051-.56-.152-.72-.1-.18-.292-.3-.575-.36-.262-.08-.635-.12-1.12-.12-.686 0-1.12.07-1.3.21a.598.598 0 0 0-.243.51c0 .2.06.36.182.48.14.12.464.23.968.33l3.48.72c1.17.24 2.088.56 2.754.96.686.38 1.17.87 1.453 1.47.302.58.454 1.29.454 2.13 0 1.46-.595 2.66-1.786 3.6-1.19.92-2.925 1.38-5.205 1.38Zm15.793 0c-1.674 0-3.107-.31-4.297-.93a6.58 6.58 0 0 1-2.694-2.7c-.605-1.18-.907-2.59-.907-4.23 0-1.7.312-3.16.938-4.38a6.373 6.373 0 0 1 2.754-2.79c1.21-.66 2.673-.99 4.388-.99 1.675 0 3.067.3 4.176.9 1.13.6 1.967 1.43 2.512 2.49.565 1.04.847 2.25.847 3.63 0 .42-.03.84-.09 1.26-.061.42-.111.76-.152 1.02H92.575v-3.06h8.019l-.242.15c.021-.36-.04-.68-.181-.96-.121-.3-.363-.54-.727-.72-.343-.18-.847-.27-1.513-.27-.928 0-1.573.17-1.937.51-.363.32-.544.84-.544 1.56v2.13c0 .74.06 1.31.181 1.71.121.38.373.64.757.78.383.14.968.21 1.755.21.686 0 1.16-.07 1.422-.21.263-.16.394-.41.394-.75v-.06h5.629v.36c0 1.04-.313 1.96-.938 2.76-.606.8-1.473 1.43-2.603 1.89-1.11.46-2.441.69-3.995.69Zm14.702-.3h-5.659v-20.1h5.659v20.1Z"/><path fill="#fff" fill-rule="evenodd" d="M2.522 0h25.22a2.511 2.511 0 0 1 2.521 2.5v25c0 1.38-1.129 2.5-2.522 2.5H2.521A2.511 2.511 0 0 1 0 27.5v-25C0 1.12 1.13 0 2.522 0Zm22.774 13.094a1.242 1.242 0 0 0 0-1.768L22.62 8.674a1.269 1.269 0 0 0-1.784 0L14.5 14.956l-3.815-3.782a1.269 1.269 0 0 0-1.783 0l-2.675 2.652a1.242 1.242 0 0 0 0 1.768l7.381 7.317a1.27 1.27 0 0 0 1.784 0l9.903-9.817Z" clip-rule="evenodd"/></svg>